<svg xmlns="http://www.w3.org/2000/svg" viewBox="0 0 32 32" width="32" height="32">
  <!-- Dark night background -->
  <rect width="32" height="32" fill="#0a0a1a"/>
  
  <!-- Buildings silhouette -->
  <g fill="#1a1a2e">
    <!-- Building 1 (N) -->
    <rect x="3" y="8" width="7" height="20"/>
    <!-- Building 2 (Y) -->
    <rect x="11" y="6" width="7" height="22"/>
    <!-- Building 3 (C) -->
    <rect x="19" y="9" width="7" height="19"/>
  </g>
  
  <!-- Illuminated windows spelling "NYC" -->
  <!-- Letter N -->
  <g fill="#ffd700">
    <!-- Left column -->
    <rect x="4" y="12" width="1" height="1"/>
    <rect x="4" y="14" width="1" height="1"/>
    <rect x="4" y="16" width="1" height="1"/>
    <rect x="4" y="18" width="1" height="1"/>
    <rect x="4" y="20" width="1" height="1"/>
    <rect x="4" y="22" width="1" height="1"/>
    <rect x="4" y="24" width="1" height="1"/>
    
    <!-- Diagonal -->
    <rect x="5" y="14" width="1" height="1"/>
    <rect x="6" y="16" width="1" height="1"/>
    <rect x="7" y="18" width="1" height="1"/>
    
    <!-- Right column -->
    <rect x="8" y="12" width="1" height="1"/>
    <rect x="8" y="14" width="1" height="1"/>
    <rect x="8" y="16" width="1" height="1"/>
    <rect x="8" y="18" width="1" height="1"/>
    <rect x="8" y="20" width="1" height="1"/>
    <rect x="8" y="22" width="1" height="1"/>
    <rect x="8" y="24" width="1" height="1"/>
  </g>
  
  <!-- Letter Y -->
  <g fill="#ffd700">
    <!-- Left diagonal -->
    <rect x="12" y="10" width="1" height="1"/>
    <rect x="13" y="12" width="1" height="1"/>
    <rect x="14" y="14" width="1" height="1"/>
    
    <!-- Right diagonal -->
    <rect x="16" y="10" width="1" height="1"/>
    <rect x="15" y="12" width="1" height="1"/>
    
    <!-- Vertical stem -->
    <rect x="14" y="16" width="1" height="1"/>
    <rect x="14" y="18" width="1" height="1"/>
    <rect x="14" y="20" width="1" height="1"/>
    <rect x="14" y="22" width="1" height="1"/>
    <rect x="14" y="24" width="1" height="1"/>
  </g>
  
  <!-- Letter C -->
  <g fill="#ffd700">
    <!-- Top horizontal -->
    <rect x="21" y="13" width="1" height="1"/>
    <rect x="22" y="13" width="1" height="1"/>
    <rect x="23" y="13" width="1" height="1"/>
    
    <!-- Left vertical -->
    <rect x="20" y="15" width="1" height="1"/>
    <rect x="20" y="17" width="1" height="1"/>
    <rect x="20" y="19" width="1" height="1"/>
    <rect x="20" y="21" width="1" height="1"/>
    
    <!-- Bottom horizontal -->
    <rect x="21" y="23" width="1" height="1"/>
    <rect x="22" y="23" width="1" height="1"/>
    <rect x="23" y="23" width="1" height="1"/>
  </g>
  
  <!-- Additional random lit windows for atmosphere -->
  <g fill="#4a90e2" opacity="0.7">
    <rect x="5" y="10" width="1" height="1"/>
    <rect x="7" y="11" width="1" height="1"/>
    <rect x="13" y="8" width="1" height="1"/>
    <rect x="15" y="9" width="1" height="1"/>
    <rect x="21" y="11" width="1" height="1"/>
    <rect x="24" y="12" width="1" height="1"/>
  </g>
</svg>